<?xml version="1.0" encoding="utf-8"?>
<svg width="256" height="256" viewBox="0 0 256 256" fill="none" xmlns="http://www.w3.org/2000/svg">
  <defs>
    <clipPath id="clip_path_1">
      <rect width="256" height="256" />
    </clipPath>
    <linearGradient id="gradient_2" gradientUnits="userSpaceOnUse" x1="56.144" y1="0" x2="56.144" y2="240">
      <stop offset="0.222" stop-color="#8272FF" />
      <stop offset="0.82" stop-color="#2E12FF" />
    </linearGradient>
  </defs>
  <g>
    <rect width="256" height="256" />
    <g id="Group">
      <rect id="Rectangle" width="256" height="256" />
      <g clip-path="url(#clip_path_1)">
        <rect width="256" height="256" />
        <g id="Group" transform="translate(0 -0)">
          <rect id="Rectangle" width="256" height="256" transform="translate(0 0)" />
          <g id="Group">
            <rect id="Rectangle" width="256" height="256" transform="translate(0 0)" />
            <g id="Group#1">
              <g id="Group#2">
                <path id="Vector" d="M111.761 110.649C111.761 110.649 17.1608 3.27491 17.1608 3.27491C15.9077 1.85262 14.2999 0.882833 12.3375 0.365537C10.3751 -0.151759 8.42428 -0.12001 6.48508 0.460786C4.54589 1.04158 2.98024 2.06302 1.78814 3.52511C0.596046 4.98719 -4.76837e-07 6.61703 0 8.41462C0 8.41462 9.53674e-06 231.585 9.53674e-06 231.585C9.53674e-06 233.382 0.596057 235.012 1.78815 236.474C2.98025 237.937 4.54589 238.958 6.48509 239.539C8.42428 240.12 10.3751 240.151 12.3375 239.634C14.2999 239.117 15.9077 238.147 17.1608 236.725C17.1608 236.725 111.763 129.349 111.763 129.349C111.763 129.349 113.155 128.102 113.155 128.102C114.056 127.294 115.1 126.672 116.288 126.234C117.475 125.796 118.713 125.577 120.001 125.577C121.289 125.577 122.526 125.796 123.713 126.234C124.901 126.672 125.945 127.294 126.846 128.102C126.846 128.102 128.231 129.342 128.231 129.342C128.231 129.342 222.839 236.725 222.839 236.725C224.092 238.147 225.7 239.117 227.662 239.634C229.625 240.152 231.576 240.12 233.515 239.539C235.454 238.958 237.02 237.937 238.212 236.475C239.404 235.013 240 233.383 240 231.585C240 231.585 240 8.41511 240 8.41511C240 6.61752 239.404 4.98768 238.212 3.52559C237.02 2.06351 235.454 1.04207 233.515 0.461274C231.576 -0.119521 229.625 -0.151271 227.662 0.366026C225.7 0.883322 224.092 1.85311 222.839 3.2754C222.839 3.2754 128.232 110.656 128.232 110.656C128.232 110.656 126.847 111.898 126.847 111.898C125.946 112.705 124.901 113.328 123.714 113.766C122.527 114.204 121.289 114.423 120.001 114.423C118.713 114.423 117.476 114.204 116.288 113.766C115.101 113.328 114.057 112.705 113.156 111.898C113.156 111.898 111.761 110.649 111.761 110.649C111.761 110.649 111.761 110.649 111.761 110.649L111.761 110.649C111.761 110.649 111.761 110.649 111.761 110.649Z" fill="url(#gradient_2)" fill-rule="evenodd" transform="translate(8 8)" />
                <path id="Shape" d="M119.761 118.654C119.761 118.654 25.1608 11.2807 25.1608 11.2807C23.9077 9.85839 22.2999 8.8886 20.3375 8.37131C18.3751 7.85401 16.4243 7.88576 14.4851 8.46655C12.5459 9.04735 10.9802 10.0688 9.78814 11.5309C8.59605 12.993 8 14.6228 8 16.4204C8 16.4204 8.00001 239.591 8.00001 239.591C8.00001 241.388 8.59606 243.018 9.78815 244.48C10.9803 245.942 12.5459 246.964 14.4851 247.544C16.4243 248.125 18.3751 248.157 20.3375 247.64C22.2999 247.122 23.9077 246.153 25.1608 244.73C25.1608 244.73 119.763 137.355 119.763 137.355C119.763 137.355 121.155 136.107 121.155 136.107C122.056 135.3 123.1 134.678 124.288 134.24C125.475 133.802 126.713 133.583 128.001 133.583C129.289 133.583 130.526 133.802 131.713 134.24C132.901 134.678 133.945 135.3 134.846 136.107C134.846 136.107 136.231 137.348 136.231 137.348C136.231 137.348 230.839 244.731 230.839 244.731C232.092 246.153 233.7 247.123 235.662 247.64C237.625 248.158 239.576 248.126 241.515 247.545C243.454 246.964 245.02 245.943 246.212 244.481C247.404 243.019 248 241.389 248 239.591C248 239.591 248 16.4209 248 16.4209C248 14.6233 247.404 12.9934 246.212 11.5314C245.02 10.0693 243.454 9.04784 241.515 8.46704C239.576 7.88625 237.625 7.8545 235.662 8.37179C233.7 8.88909 232.092 9.85888 230.839 11.2812C230.839 11.2812 136.232 118.662 136.232 118.662C136.232 118.662 134.847 119.904 134.847 119.904C133.946 120.711 132.901 121.334 131.714 121.771C130.527 122.209 129.289 122.428 128.001 122.428C126.713 122.428 125.476 122.209 124.288 121.771C123.101 121.334 122.057 120.711 121.156 119.904C121.156 119.904 119.761 118.654 119.761 118.654C119.761 118.654 119.761 118.654 119.761 118.654C119.761 118.654 119.761 118.654 119.761 118.654ZM130.542 113.019C130.542 113.019 224.837 5.99262 224.837 5.99262C227.163 3.35255 230.092 1.56702 233.623 0.636037C237.037 -0.26389 240.433 -0.20811 243.81 0.803377C247.318 1.85398 250.185 3.74485 252.412 6.47599C254.804 9.40963 256 12.7246 256 16.4209C256 16.4209 256 239.591 256 239.591C256 243.288 254.804 246.603 252.412 249.536C250.185 252.267 247.318 254.158 243.81 255.209C240.433 256.22 237.037 256.276 233.623 255.376C230.092 254.445 227.163 252.659 224.837 250.019C224.837 250.019 130.54 142.991 130.54 142.991C130.54 142.991 129.508 142.066 129.508 142.066C129.365 141.938 129.177 141.831 128.945 141.745C128.651 141.637 128.336 141.583 128.001 141.583C127.665 141.583 127.35 141.637 127.056 141.745C126.824 141.831 126.636 141.938 126.493 142.066C126.493 142.066 125.453 142.998 125.453 142.998C125.453 142.998 31.1634 250.019 31.1634 250.019C28.8373 252.659 25.9084 254.444 22.3767 255.375C18.9626 256.275 15.567 256.219 12.1898 255.208C8.68203 254.157 5.81469 252.267 3.58784 249.536C1.19595 246.602 1.00136e-05 243.287 1.00136e-05 239.591C1.00136e-05 239.591 0 16.4204 0 16.4204C0 12.7241 1.19595 9.40916 3.58786 6.47553C5.81469 3.74437 8.682 1.8535 12.1898 0.802897C15.567 -0.208597 18.9627 -0.264377 22.3767 0.635557C25.9085 1.56654 28.8374 3.35207 31.1634 5.99214C31.1634 5.99214 125.452 113.011 125.452 113.011C125.452 113.011 126.494 113.945 126.494 113.945C126.637 114.073 126.824 114.18 127.056 114.266C127.35 114.374 127.665 114.428 128.001 114.428C128.337 114.428 128.652 114.374 128.946 114.266C129.178 114.18 129.365 114.073 129.508 113.945C129.508 113.945 130.542 113.019 130.542 113.019C130.542 113.019 130.542 113.019 130.542 113.019C130.542 113.019 130.542 113.019 130.542 113.019Z" fill="#FFFFFF" fill-rule="evenodd" />
              </g>
            </g>
          </g>
        </g>
      </g>
    </g>
  </g>
</svg>