<?xml version="1.0" encoding="utf-8"?>
<svg width="256" height="256" viewBox="0 0 256 256" fill="none" xmlns="http://www.w3.org/2000/svg">
  <defs>
    <clipPath id="clip_path_1">
      <rect width="256" height="256" />
    </clipPath>
  </defs>
  <g clip-path="url(#clip_path_1)">
    <rect width="256" height="256" />
    <path id="Group Subtract" d="M119.212 118.026L18.3048 3.49327C16.9681 1.97615 15.2532 0.941696 13.16 0.389909C11.0667 -0.161878 8.98587 -0.128011 6.9174 0.491509C4.84893 1.11103 3.17891 2.20058 1.90735 3.76014C0.635782 5.31971 -4.2945e-07 7.05822 3.08471e-07 8.97567L1.01795e-05 247.026C1.01795e-05 248.943 0.635792 250.682 1.90736 252.241C3.17892 253.801 4.84894 254.891 6.91741 255.51C8.98588 256.13 11.0667 256.163 13.16 255.612C15.2532 255.06 16.9681 254.025 18.3048 252.508L119.214 137.973L120.698 136.643C121.659 135.782 122.773 135.118 124.04 134.651C125.306 134.183 126.626 133.95 128 133.95C129.374 133.95 130.694 134.183 131.961 134.651C133.227 135.118 134.341 135.782 135.302 136.643L136.779 137.966L237.695 252.509C239.031 254.026 240.746 255.06 242.839 255.612C244.933 256.164 247.013 256.13 249.082 255.511C251.15 254.891 252.82 253.802 254.092 252.242C255.364 250.682 255.999 248.944 255.999 247.026L255.999 8.97619C255.999 7.05874 255.364 5.32023 254.092 3.76067C252.82 2.20109 251.15 1.11155 249.082 0.492029C247.013 -0.127491 244.933 -0.161357 242.839 0.390431C240.746 0.942218 239.031 1.97667 237.695 3.49379L136.781 118.035L135.303 119.359C134.342 120.22 133.228 120.884 131.961 121.351C130.695 121.818 129.375 122.052 128.001 122.052C126.627 122.052 125.307 121.818 124.04 121.351C122.774 120.884 121.66 120.22 120.699 119.359L119.212 118.026L119.212 118.026Z" fill="#FFFFFF" fill-rule="evenodd" transform="translate(-0 -0)" />
  </g>
</svg>